<svg width="1200" height="1200" viewBox="0 0 1200 1200" fill="none" xmlns="http://www.w3.org/2000/svg">
<rect width="1200" height="1200" fill="white"/>
<g filter="url(#filter0_i_5_60)">
<rect x="177" y="415" width="846" height="557" rx="54" fill="#C7E7FF"/>
</g>
<circle cx="737.5" cy="408.5" r="215" fill="url(#paint0_linear_5_60)"/>
<rect x="271" y="335" width="430" height="430" fill="url(#paint1_linear_5_60)"/>
<rect x="591" y="448" width="230" height="230" fill="url(#paint2_linear_5_60)"/>
<g filter="url(#filter1_bi_5_60)">
<path fill-rule="evenodd" clip-rule="evenodd" d="M229 492C200.281 492 177 515.281 177 544V608V614V918C177 947.823 201.177 972 231 972H969C998.823 972 1023 947.823 1023 918V608C1023 578.177 998.823 554 969 554H544.661C530.788 554 517.447 548.661 507.405 539.089L470.168 503.598C462.357 496.153 451.981 492 441.19 492H229Z" fill="#C7E7FF" fill-opacity="0.4"/>
</g>
<defs>
<filter id="filter0_i_5_60" x="177" y="415" width="846" height="558" filterUnits="userSpaceOnUse" color-interpolation-filters="sRGB">
<feFlood flood-opacity="0" result="BackgroundImageFix"/>
<feBlend mode="normal" in="SourceGraphic" in2="BackgroundImageFix" result="shape"/>
<feColorMatrix in="SourceAlpha" type="matrix" values="0 0 0 0 0 0 0 0 0 0 0 0 0 0 0 0 0 0 127 0" result="hardAlpha"/>
<feOffset dy="1"/>
<feGaussianBlur stdDeviation="4"/>
<feComposite in2="hardAlpha" operator="arithmetic" k2="-1" k3="1"/>
<feColorMatrix type="matrix" values="0 0 0 0 1 0 0 0 0 1 0 0 0 0 1 0 0 0 0.6 0"/>
<feBlend mode="normal" in2="shape" result="effect1_innerShadow_5_60"/>
</filter>
<filter id="filter1_bi_5_60" x="131" y="446" width="938" height="572" filterUnits="userSpaceOnUse" color-interpolation-filters="sRGB">
<feFlood flood-opacity="0" result="BackgroundImageFix"/>
<feGaussianBlur in="BackgroundImageFix" stdDeviation="23"/>
<feComposite in2="SourceAlpha" operator="in" result="effect1_backgroundBlur_5_60"/>
<feBlend mode="normal" in="SourceGraphic" in2="effect1_backgroundBlur_5_60" result="shape"/>
<feColorMatrix in="SourceAlpha" type="matrix" values="0 0 0 0 0 0 0 0 0 0 0 0 0 0 0 0 0 0 127 0" result="hardAlpha"/>
<feOffset dy="1"/>
<feGaussianBlur stdDeviation="4"/>
<feComposite in2="hardAlpha" operator="arithmetic" k2="-1" k3="1"/>
<feColorMatrix type="matrix" values="0 0 0 0 1 0 0 0 0 1 0 0 0 0 1 0 0 0 0.6 0"/>
<feBlend mode="normal" in2="shape" result="effect2_innerShadow_5_60"/>
</filter>
<linearGradient id="paint0_linear_5_60" x1="855.419" y1="235.648" x2="640.419" y2="584.194" gradientUnits="userSpaceOnUse">
<stop stop-color="#00A3FF"/>
<stop offset="1" stop-color="#0046FB"/>
</linearGradient>
<linearGradient id="paint1_linear_5_60" x1="701" y1="489.409" x2="284.682" y2="489.409" gradientUnits="userSpaceOnUse">
<stop stop-color="#FF3C82"/>
<stop offset="1" stop-color="#FF1F3C"/>
</linearGradient>
<linearGradient id="paint2_linear_5_60" x1="594" y1="460.5" x2="821" y2="608.5" gradientUnits="userSpaceOnUse">
<stop stop-color="#FFA800"/>
<stop offset="1" stop-color="#DBFF00"/>
</linearGradient>
</defs>
</svg>
