<svg width="20" height="20" viewBox="0 0 20 20" fill="none" xmlns="http://www.w3.org/2000/svg">
<g id="ic_edit">
<mask id="mask0_1045_30840" style="mask-type:alpha" maskUnits="userSpaceOnUse" x="0" y="0" width="20" height="20">
<rect id="Bounding box" width="20" height="20" fill="#D9D9D9"/>
</mask>
<g mask="url(#mask0_1045_30840)">
<path id="stylus" d="M4.33861 16.4918C4.08103 16.5434 3.8653 16.479 3.69143 16.2986C3.51756 16.1183 3.45638 15.8994 3.5079 15.6418L4.14542 12.5894L7.39101 15.8543L4.33861 16.4918ZM8.53082 15.0236L4.97614 11.4689L12.5298 3.91523C12.8003 3.64477 13.1255 3.50954 13.5055 3.50954C13.8854 3.50954 14.2106 3.64477 14.4811 3.91523L16.0845 5.49938C16.355 5.76985 16.4902 6.09827 16.4902 6.48465C16.4902 6.87102 16.355 7.19945 16.0845 7.46991L8.53082 15.0236Z" fill="#C2C3C4"/>
</g>
</g>
</svg>
