<svg width="32" height="32" viewBox="0 0 32 32" fill="none" xmlns="http://www.w3.org/2000/svg">
<g id="ic_favorite_seleted_32px">
<mask id="mask0_1022_21102" style="mask-type:alpha" maskUnits="userSpaceOnUse" x="0" y="0" width="32" height="32">
<rect id="Bounding box" width="32" height="32" fill="#D9D9D9"/>
</mask>
<g mask="url(#mask0_1022_21102)">
<path id="favorite" d="M14.785 23.5245L13.2325 22.0988C11.6425 20.6353 10.2062 19.1832 8.92375 17.7423C7.64125 16.3015 7 14.7136 7 12.9785C7 11.5603 7.4725 10.376 8.4175 9.4255C9.3625 8.475 10.54 7.99976 11.95 7.99976C12.745 7.99976 13.495 8.16949 14.2 8.50895C14.905 8.84841 15.505 9.31234 16 9.90075C16.495 9.31234 17.095 8.84841 17.8 8.50895C18.505 8.16949 19.255 7.99976 20.05 7.99976C21.46 7.99976 22.6375 8.475 23.5825 9.4255C24.5275 10.376 25 11.5603 25 12.9785C25 14.7136 24.3625 16.3053 23.0875 17.7536C21.8125 19.202 20.365 20.6579 18.745 22.1214L17.215 23.5245C16.87 23.8413 16.465 23.9998 16 23.9998C15.535 23.9998 15.13 23.8413 14.785 23.5245Z" fill="#FF004D"/>
</g>
</g>
</svg>
