<svg width="24" height="24" viewBox="0 0 24 24" fill="none" xmlns="http://www.w3.org/2000/svg">
<g id="ic_setting_error">
<mask id="mask0_1045_55886" style="mask-type:alpha" maskUnits="userSpaceOnUse" x="0" y="0" width="24" height="24">
<rect id="Bounding box" width="24" height="24" fill="#D9D9D9"/>
</mask>
<g mask="url(#mask0_1045_55886)">
<g id="Group 794">
<path id="Vector" d="M15.6749 4.64035H8.3249C7.9649 4.64035 7.6349 4.83035 7.4549 5.14035L3.7849 11.5004C3.6049 11.8104 3.6049 12.1903 3.7849 12.5003L7.4549 18.8604C7.6349 19.1704 7.9649 19.3604 8.3249 19.3604H15.6749C16.0349 19.3604 16.3649 19.1704 16.5449 18.8604L20.2149 12.5003C20.3949 12.1903 20.3949 11.8104 20.2149 11.5004L16.5449 5.14035C16.3649 4.83035 16.0349 4.64035 15.6749 4.64035Z" stroke="#232329" stroke-width="1.5" stroke-miterlimit="10"/>
<g id="Group">
<path id="Vector_2" d="M12.7549 8.40051C12.7549 7.9863 12.4191 7.65051 12.0049 7.65051C11.5907 7.65051 11.2549 7.9863 11.2549 8.40051V12.9005C11.2549 13.3147 11.5907 13.6505 12.0049 13.6505C12.4191 13.6505 12.7549 13.3147 12.7549 12.9005V8.40051Z" fill="#232329"/>
<path id="Vector_3" d="M12.0047 16.3503C12.3913 16.3503 12.7047 16.0369 12.7047 15.6503C12.7047 15.2637 12.3913 14.9503 12.0047 14.9503C11.6181 14.9503 11.3047 15.2637 11.3047 15.6503C11.3047 16.0369 11.6181 16.3503 12.0047 16.3503Z" fill="#232329"/>
</g>
</g>
</g>
</g>
</svg>
