<svg width="24" height="24" viewBox="0 0 24 24" fill="none" xmlns="http://www.w3.org/2000/svg">
<g id="logo_google">
<g id="Group">
<g id="Clip path group">
<mask id="mask0_1045_56416" style="mask-type:luminance" maskUnits="userSpaceOnUse" x="4" y="4" width="16" height="16">
<g id="B">
<path id="Vector" d="M18.9593 10.8488H12.1657V13.6657H16.0762C15.7116 15.4552 14.1872 16.4825 12.1657 16.4825C9.77965 16.4825 7.85756 14.5604 7.85756 12.1744C7.85756 9.78835 9.77965 7.86625 12.1657 7.86625C13.193 7.86625 14.1209 8.23079 14.85 8.8273L16.9709 6.70637C15.6785 5.57963 14.0215 4.8837 12.1657 4.8837C8.12267 4.8837 4.875 8.13137 4.875 12.1744C4.875 16.2174 8.12267 19.4651 12.1657 19.4651C15.811 19.4651 19.125 16.8139 19.125 12.1744C19.125 11.7436 19.0587 11.2796 18.9593 10.8488Z" fill="white"/>
</g>
</mask>
<g mask="url(#mask0_1045_56416)">
<path id="Vector_2" d="M4.21191 16.4825V7.86626L9.84564 12.1744L4.21191 16.4825Z" fill="#FBBC05"/>
</g>
</g>
<g id="Clip path group_2">
<mask id="mask1_1045_56416" style="mask-type:luminance" maskUnits="userSpaceOnUse" x="4" y="4" width="16" height="16">
<g id="B_2">
<path id="Vector_3" d="M18.9593 10.8488H12.1657V13.6657H16.0762C15.7116 15.4552 14.1872 16.4825 12.1657 16.4825C9.77965 16.4825 7.85756 14.5604 7.85756 12.1744C7.85756 9.78835 9.77965 7.86625 12.1657 7.86625C13.193 7.86625 14.1209 8.23079 14.85 8.8273L16.9709 6.70637C15.6785 5.57963 14.0215 4.8837 12.1657 4.8837C8.12267 4.8837 4.875 8.13137 4.875 12.1744C4.875 16.2174 8.12267 19.4651 12.1657 19.4651C15.811 19.4651 19.125 16.8139 19.125 12.1744C19.125 11.7436 19.0587 11.2796 18.9593 10.8488Z" fill="white"/>
</g>
</mask>
<g mask="url(#mask1_1045_56416)">
<path id="Vector_4" d="M4.21191 7.86625L9.84563 12.1744L12.1654 10.1529L20.1189 8.86044V4.2209H4.21191V7.86625Z" fill="#EA4335"/>
</g>
</g>
<g id="Clip path group_3">
<mask id="mask2_1045_56416" style="mask-type:luminance" maskUnits="userSpaceOnUse" x="4" y="4" width="16" height="16">
<g id="B_3">
<path id="Vector_5" d="M18.9593 10.8488H12.1657V13.6657H16.0762C15.7116 15.4552 14.1872 16.4825 12.1657 16.4825C9.77965 16.4825 7.85756 14.5604 7.85756 12.1744C7.85756 9.78835 9.77965 7.86625 12.1657 7.86625C13.193 7.86625 14.1209 8.23079 14.85 8.8273L16.9709 6.70637C15.6785 5.57963 14.0215 4.8837 12.1657 4.8837C8.12267 4.8837 4.875 8.13137 4.875 12.1744C4.875 16.2174 8.12267 19.4651 12.1657 19.4651C15.811 19.4651 19.125 16.8139 19.125 12.1744C19.125 11.7436 19.0587 11.2796 18.9593 10.8488Z" fill="white"/>
</g>
</mask>
<g mask="url(#mask2_1045_56416)">
<path id="Vector_6" d="M4.21191 16.4825L14.1538 8.86044L16.7718 9.19183L20.1189 4.2209V20.1279H4.21191V16.4825Z" fill="#34A853"/>
</g>
</g>
<g id="Clip path group_4">
<mask id="mask3_1045_56416" style="mask-type:luminance" maskUnits="userSpaceOnUse" x="4" y="4" width="16" height="16">
<g id="B_4">
<path id="Vector_7" d="M18.9593 10.8488H12.1657V13.6657H16.0762C15.7116 15.4552 14.1872 16.4825 12.1657 16.4825C9.77965 16.4825 7.85756 14.5604 7.85756 12.1744C7.85756 9.78835 9.77965 7.86625 12.1657 7.86625C13.193 7.86625 14.1209 8.23079 14.85 8.8273L16.9709 6.70637C15.6785 5.57963 14.0215 4.8837 12.1657 4.8837C8.12267 4.8837 4.875 8.13137 4.875 12.1744C4.875 16.2174 8.12267 19.4651 12.1657 19.4651C15.811 19.4651 19.125 16.8139 19.125 12.1744C19.125 11.7436 19.0587 11.2796 18.9593 10.8488Z" fill="white"/>
</g>
</mask>
<g mask="url(#mask3_1045_56416)">
<path id="Vector_8" d="M20.1193 20.1279L9.84609 12.1744L8.52051 11.1802L20.1193 7.86626V20.1279Z" fill="#4285F4"/>
</g>
</g>
</g>
</g>
</svg>
