<svg width="32" height="32" viewBox="0 0 32 32" fill="white" xmlns="http://www.w3.org/2000/svg">
<g id="logo_apple">
<path id="Vector" d="M23.4902 12.8729C23.3762 12.9613 21.3637 14.0953 21.3637 16.6169C21.3637 19.5335 23.9246 20.5653 24.0012 20.5908C23.9894 20.6537 23.5944 22.0039 22.651 23.3797C21.8098 24.5903 20.9313 25.799 19.5949 25.799C18.2584 25.799 17.9145 25.0227 16.3717 25.0227C14.8682 25.0227 14.3336 25.8246 13.1112 25.8246C11.8887 25.8246 11.0357 24.7043 10.055 23.3286C8.91904 21.7131 8.00122 19.2033 8.00122 16.8213C8.00122 13.0006 10.4854 10.9743 12.9303 10.9743C14.2294 10.9743 15.3124 11.8273 16.128 11.8273C16.9043 11.8273 18.115 10.9232 19.5929 10.9232C20.153 10.9232 22.1656 10.9743 23.4902 12.8729ZM18.8913 9.30575C19.5025 8.58054 19.9349 7.57427 19.9349 6.56801C19.9349 6.42847 19.9231 6.28696 19.8975 6.17297C18.9031 6.21032 17.7199 6.8353 17.0065 7.66271C16.4464 8.29949 15.9236 9.30575 15.9236 10.3258C15.9236 10.4791 15.9491 10.6324 15.9609 10.6815C16.0238 10.6933 16.126 10.7071 16.2282 10.7071C17.1205 10.7071 18.2427 10.1096 18.8913 9.30575Z" fill="black"/>
</g>
</svg>
