<svg width="32" height="32" viewBox="0 0 32 32" fill="none" xmlns="http://www.w3.org/2000/svg">
<g id="logo_google">
<g id="Group">
<g id="Clip path group">
<mask id="mask0_942_51990" style="mask-type:luminance" maskUnits="userSpaceOnUse" x="6" y="6" width="20" height="20">
<g id="B">
<path id="Vector" d="M25.2791 14.4651H16.2209V18.2209H21.4349C20.9488 20.6069 18.9163 21.9767 16.2209 21.9767C13.0395 21.9767 10.4767 19.4139 10.4767 16.2325C10.4767 13.0511 13.0395 10.4883 16.2209 10.4883C17.5907 10.4883 18.8279 10.9744 19.8 11.7697L22.6279 8.94183C20.9047 7.4395 18.6953 6.5116 16.2209 6.5116C10.8302 6.5116 6.5 10.8418 6.5 16.2325C6.5 21.6232 10.8302 25.9535 16.2209 25.9535C21.0814 25.9535 25.5 22.4186 25.5 16.2325C25.5 15.6581 25.4116 15.0395 25.2791 14.4651Z" fill="white"/>
</g>
</mask>
<g mask="url(#mask0_942_51990)">
<path id="Vector_2" d="M5.61621 21.9767V10.4883L13.1278 16.2325L5.61621 21.9767Z" fill="#FBBC05"/>
</g>
</g>
<g id="Clip path group_2">
<mask id="mask1_942_51990" style="mask-type:luminance" maskUnits="userSpaceOnUse" x="6" y="6" width="20" height="20">
<g id="B_2">
<path id="Vector_3" d="M25.2791 14.4651H16.2209V18.2209H21.4349C20.9488 20.6069 18.9163 21.9767 16.2209 21.9767C13.0395 21.9767 10.4767 19.4139 10.4767 16.2325C10.4767 13.0511 13.0395 10.4883 16.2209 10.4883C17.5907 10.4883 18.8279 10.9744 19.8 11.7697L22.6279 8.94183C20.9047 7.4395 18.6953 6.5116 16.2209 6.5116C10.8302 6.5116 6.5 10.8418 6.5 16.2325C6.5 21.6232 10.8302 25.9535 16.2209 25.9535C21.0814 25.9535 25.5 22.4186 25.5 16.2325C25.5 15.6581 25.4116 15.0395 25.2791 14.4651Z" fill="white"/>
</g>
</mask>
<g mask="url(#mask1_942_51990)">
<path id="Vector_4" d="M5.61621 10.4883L13.1278 16.2325L16.2209 13.5372L26.8255 11.8139V5.62787H5.61621V10.4883Z" fill="#EA4335"/>
</g>
</g>
<g id="Clip path group_3">
<mask id="mask2_942_51990" style="mask-type:luminance" maskUnits="userSpaceOnUse" x="6" y="6" width="20" height="20">
<g id="B_3">
<path id="Vector_5" d="M25.2791 14.4651H16.2209V18.2209H21.4349C20.9488 20.6069 18.9163 21.9767 16.2209 21.9767C13.0395 21.9767 10.4767 19.4139 10.4767 16.2325C10.4767 13.0511 13.0395 10.4883 16.2209 10.4883C17.5907 10.4883 18.8279 10.9744 19.8 11.7697L22.6279 8.94183C20.9047 7.4395 18.6953 6.5116 16.2209 6.5116C10.8302 6.5116 6.5 10.8418 6.5 16.2325C6.5 21.6232 10.8302 25.9535 16.2209 25.9535C21.0814 25.9535 25.5 22.4186 25.5 16.2325C25.5 15.6581 25.4116 15.0395 25.2791 14.4651Z" fill="white"/>
</g>
</mask>
<g mask="url(#mask2_942_51990)">
<path id="Vector_6" d="M5.61621 21.9767L18.872 11.8139L22.3627 12.2558L26.8255 5.62787V26.8372H5.61621V21.9767Z" fill="#34A853"/>
</g>
</g>
<g id="Clip path group_4">
<mask id="mask3_942_51990" style="mask-type:luminance" maskUnits="userSpaceOnUse" x="6" y="6" width="20" height="20">
<g id="B_4">
<path id="Vector_7" d="M25.2791 14.4651H16.2209V18.2209H21.4349C20.9488 20.6069 18.9163 21.9767 16.2209 21.9767C13.0395 21.9767 10.4767 19.4139 10.4767 16.2325C10.4767 13.0511 13.0395 10.4883 16.2209 10.4883C17.5907 10.4883 18.8279 10.9744 19.8 11.7697L22.6279 8.94183C20.9047 7.4395 18.6953 6.5116 16.2209 6.5116C10.8302 6.5116 6.5 10.8418 6.5 16.2325C6.5 21.6232 10.8302 25.9535 16.2209 25.9535C21.0814 25.9535 25.5 22.4186 25.5 16.2325C25.5 15.6581 25.4116 15.0395 25.2791 14.4651Z" fill="white"/>
</g>
</mask>
<g mask="url(#mask3_942_51990)">
<path id="Vector_8" d="M26.8255 26.8372L13.1278 16.2325L11.3604 14.9069L26.8255 10.4883V26.8372Z" fill="#4285F4"/>
</g>
</g>
</g>
</g>
</svg>
