<svg width="32" height="32" viewBox="0 0 32 32" fill="none" xmlns="http://www.w3.org/2000/svg">
<g id="logo_apple">
<path id="Vector" d="M23.49 12.8729C23.376 12.9613 21.3635 14.0953 21.3635 16.6169C21.3635 19.5335 23.9243 20.5653 24.001 20.5908C23.9892 20.6537 23.5941 22.0039 22.6508 23.3797C21.8096 24.5903 20.9311 25.799 19.5946 25.799C18.2582 25.799 17.9143 25.0227 16.3714 25.0227C14.8679 25.0227 14.3334 25.8246 13.1109 25.8246C11.8885 25.8246 11.0355 24.7043 10.0548 23.3286C8.9188 21.7131 8.00098 19.2033 8.00098 16.8213C8.00098 13.0006 10.4852 10.9743 12.9301 10.9743C14.2292 10.9743 15.3121 11.8273 16.1277 11.8273C16.9041 11.8273 18.1147 10.9232 19.5927 10.9232C20.1528 10.9232 22.1653 10.9743 23.49 12.8729ZM18.891 9.30575C19.5023 8.58054 19.9346 7.57427 19.9346 6.56801C19.9346 6.42847 19.9229 6.28696 19.8973 6.17297C18.9028 6.21032 17.7197 6.8353 17.0063 7.66271C16.4461 8.29949 15.9233 9.30575 15.9233 10.3258C15.9233 10.4791 15.9489 10.6324 15.9607 10.6815C16.0236 10.6933 16.1258 10.7071 16.228 10.7071C17.1202 10.7071 18.2425 10.1096 18.891 9.30575Z" fill="white"/>
</g>
</svg>
