<svg width="142" height="20" viewBox="0 0 142 20" fill="none" xmlns="http://www.w3.org/2000/svg">
<g id="logo_black_20px">
<g id="Group 882">
<path id="Vector" d="M12.2075 20L10.2531 17.3724C9.67328 17.4875 9.10868 17.5462 8.55928 17.5462C7.12605 17.5462 5.81226 17.2139 4.61791 16.5473C3.42355 15.8806 2.47459 14.9512 1.77317 13.7568C1.07176 12.5625 0.719971 11.2204 0.719971 9.72858C0.719971 8.23673 1.07176 6.89905 1.77317 5.71121C2.47459 4.52337 3.42355 3.59829 4.61791 2.93162C5.81226 2.26496 7.12605 1.93271 8.55928 1.93271C9.9925 1.93271 11.3063 2.26496 12.5006 2.93162C13.695 3.59829 14.6353 4.52337 15.3237 5.71121C16.012 6.89905 16.3552 8.23673 16.3552 9.72858C16.3552 11.0315 16.0902 12.2215 15.5625 13.3008C15.0348 14.38 14.2987 15.2726 13.3584 15.9827L16.7026 20H12.2075ZM5.61682 12.9533C6.34864 13.7568 7.32801 14.1586 8.55928 14.1586C9.79055 14.1586 10.7482 13.7525 11.48 12.9425C12.2118 12.1325 12.5767 11.0597 12.5767 9.72858C12.5767 8.39742 12.2118 7.3073 11.48 6.50383C10.7482 5.70035 9.77535 5.29862 8.55928 5.29862C7.34321 5.29862 6.34864 5.69601 5.61682 6.49297C4.88501 7.28993 4.52019 8.36702 4.52019 9.72858C4.52019 11.0901 4.88501 12.1499 5.61682 12.9533Z" fill="black"/>
<path id="Vector_2" d="M29.6667 5.27692V17.3942H25.9534V15.7438C25.5777 16.2802 25.0674 16.7101 24.4224 17.0359C23.7775 17.3616 23.0652 17.5245 22.2835 17.5245C21.3562 17.5245 20.5397 17.3182 19.8296 16.9056C19.1195 16.493 18.5701 15.8958 18.1792 15.1141C17.7883 14.3323 17.5929 13.4137 17.5929 12.3562V5.27692H21.2845V11.8567C21.2845 12.6667 21.4952 13.2965 21.9143 13.746C22.3334 14.1955 22.898 14.4192 23.6081 14.4192C24.3182 14.4192 24.9045 14.1955 25.3236 13.746C25.7427 13.2965 25.9534 12.6667 25.9534 11.8567V5.27692H29.6667Z" fill="black"/>
<path id="Vector_3" d="M31.3715 3.44194C30.9589 3.05758 30.7526 2.58418 30.7526 2.01957C30.7526 1.45497 30.9589 0.959857 31.3715 0.575492C31.784 0.191127 32.3161 3.05176e-05 32.9675 3.05176e-05C33.619 3.05176e-05 34.1293 0.191127 34.5419 0.575492C34.9545 0.959857 35.1608 1.43977 35.1608 2.01957C35.1608 2.59938 34.9545 3.05758 34.5419 3.44194C34.1293 3.82631 33.6038 4.0174 32.9675 4.0174C32.3313 4.0174 31.784 3.82631 31.3715 3.44194ZM34.8134 5.2769V17.3942H31.1V5.2769H34.8134Z" fill="black"/>
<path id="Vector_4" d="M36.7352 8.03478C37.2499 7.09449 37.9665 6.3692 38.885 5.86322C39.8036 5.35725 40.8568 5.10318 42.0446 5.10318C43.5647 5.10318 44.8351 5.50057 45.8557 6.29753C46.8763 7.09449 47.5452 8.21502 47.8644 9.66344H43.9122C43.5799 8.73619 42.935 8.27365 41.9795 8.27365C41.2998 8.27365 40.7569 8.53858 40.3508 9.06626C39.9448 9.59395 39.7428 10.3518 39.7428 11.3355C39.7428 12.3193 39.9448 13.0771 40.3508 13.6048C40.7569 14.1325 41.2998 14.3974 41.9795 14.3974C42.935 14.3974 43.5799 13.9349 43.9122 13.0076H47.8644C47.5452 14.4257 46.872 15.5418 45.8449 16.3518C44.8177 17.1618 43.5495 17.5679 42.0446 17.5679C40.8568 17.5679 39.8036 17.3138 38.885 16.8079C37.9665 16.3019 37.2499 15.5766 36.7352 14.6363C36.2205 13.696 35.9643 12.595 35.9643 11.3355C35.9643 10.076 36.2205 8.97506 36.7352 8.03478Z" fill="black"/>
<path id="Vector_5" d="M56.3769 17.3942L52.6852 12.3127V17.3942H48.9719V1.32468H52.6852V10.2063L56.3551 5.2769H60.9371L55.8991 11.3573L60.9806 17.3942H56.3769Z" fill="black"/>
<path id="Vector_6" d="M72.0338 14.7014H66.3443L65.4322 17.3942H61.5452L67.0609 2.14987H71.3606L76.8763 17.3942H72.9458L72.0338 14.7014ZM71.0783 11.835L69.189 6.25411L67.3215 11.835H71.0783Z" fill="black"/>
<path id="Vector_7" d="M82.935 5.72207C83.5864 5.3377 84.3096 5.14661 85.1065 5.14661V9.07712H84.0859C83.1586 9.07712 82.4637 9.2769 82.0012 9.67429C81.5387 10.0717 81.3063 10.7709 81.3063 11.7698V17.3942H77.593V5.2769H81.3063V7.29644C81.7406 6.62978 82.2835 6.10643 82.935 5.72207Z" fill="black"/>
<path id="Vector_8" d="M86.5506 8.03478C87.0652 7.09449 87.7818 6.3692 88.7004 5.86322C89.619 5.35725 90.6722 5.10318 91.86 5.10318C93.3801 5.10318 94.6505 5.50057 95.6711 6.29753C96.6917 7.09449 97.3606 8.21502 97.6798 9.66344H93.7275C93.3931 8.73619 92.7503 8.27365 91.7949 8.27365C91.1152 8.27365 90.5723 8.53858 90.1662 9.06626C89.7601 9.59395 89.5582 10.3518 89.5582 11.3355C89.5582 12.3193 89.7601 13.0771 90.1662 13.6048C90.5723 14.1325 91.1152 14.3974 91.7949 14.3974C92.7503 14.3974 93.3953 13.9349 93.7275 13.0076H97.6798C97.3606 14.4257 96.6874 15.5418 95.6602 16.3518C94.6331 17.1618 93.3649 17.5679 91.86 17.5679C90.6722 17.5679 89.619 17.3138 88.7004 16.8079C87.7818 16.3019 87.0652 15.5766 86.5506 14.6363C86.0359 13.696 85.7797 12.595 85.7797 11.3355C85.7797 10.076 86.0359 8.97506 86.5506 8.03478Z" fill="black"/>
<path id="Vector_9" d="M109.58 6.52555C110.42 7.44411 110.839 8.70796 110.839 10.3149V17.3942H107.148V10.8144C107.148 10.0044 106.937 9.37462 106.518 8.92511C106.099 8.4756 105.534 8.25193 104.824 8.25193C104.114 8.25193 103.55 8.4756 103.13 8.92511C102.711 9.37462 102.501 10.0044 102.501 10.8144V17.3942H98.7874V1.32468H102.501V6.90557C102.876 6.36919 103.391 5.94357 104.043 5.62435C104.694 5.30513 105.426 5.14661 106.236 5.14661C107.626 5.14661 108.74 5.60698 109.58 6.52555Z" fill="black"/>
<path id="Vector_10" d="M112.414 3.44194C112.001 3.05758 111.795 2.58418 111.795 2.01957C111.795 1.45497 112.001 0.959857 112.414 0.575492C112.826 0.191127 113.358 3.05176e-05 114.01 3.05176e-05C114.661 3.05176e-05 115.172 0.191127 115.584 0.575492C115.997 0.959857 116.203 1.43977 116.203 2.01957C116.203 2.59938 115.997 3.05758 115.584 3.44194C115.172 3.82631 114.646 4.0174 114.01 4.0174C113.374 4.0174 112.826 3.82631 112.414 3.44194ZM115.856 5.2769V17.3942H112.142V5.2769H115.856Z" fill="black"/>
<path id="Vector_11" d="M123.065 13.9197L125.693 5.27692H129.645L125.345 17.3942H120.763L116.464 5.27692H120.438L123.065 13.9197Z" fill="black"/>
<path id="Vector_12" d="M141.219 12.2259H132.816C132.874 12.9794 133.115 13.5549 133.543 13.9523C133.969 14.3497 134.494 14.5494 135.117 14.5494C136.045 14.5494 136.687 14.1586 137.05 13.3768H141.002C140.8 14.1738 140.433 14.8904 139.906 15.5266C139.378 16.1629 138.716 16.6624 137.919 17.025C137.122 17.3877 136.231 17.5679 135.248 17.5679C134.06 17.5679 133.004 17.3138 132.077 16.8079C131.15 16.3019 130.427 15.5766 129.906 14.6363C129.384 13.696 129.124 12.595 129.124 11.3355C129.124 10.076 129.38 8.97506 129.895 8.03478C130.409 7.09449 131.128 6.3692 132.055 5.86322C132.983 5.35725 134.047 5.10318 135.248 5.10318C136.449 5.10318 137.463 5.34857 138.375 5.84151C139.287 6.33445 139.999 7.03586 140.514 7.94791C141.028 8.85997 141.285 9.92403 141.285 11.1401C141.285 11.4875 141.263 11.8502 141.219 12.2259ZM137.484 10.1629C137.484 9.52663 137.267 9.01849 136.833 8.64281C136.399 8.26713 135.856 8.07821 135.204 8.07821C134.553 8.07821 134.058 8.25845 133.63 8.6211C133.202 8.98375 132.939 9.49623 132.837 10.1629H137.484Z" fill="black"/>
</g>
</g>
</svg>
