<svg width="32" height="32" viewBox="0 0 32 32" fill="none" xmlns="http://www.w3.org/2000/svg">
<g id="Group 877">
<circle id="Ellipse 48" cx="16" cy="16" r="16" fill="#146EFF"/>
<path id="3" d="M15.9563 22.5C13.0768 22.5 11.0262 20.9099 11 18.6384H14.0017C14.0279 19.4859 14.8481 20.0625 15.9738 20.0712C17.0907 20.0625 17.8935 19.4335 17.8761 18.5161C17.8935 17.5988 17.0384 16.9523 15.712 16.9435H14.4904V14.8118H15.712C16.8638 14.8206 17.6666 14.2003 17.6666 13.2917C17.6666 12.4355 16.986 11.8327 15.9738 11.8239C14.9354 11.8327 14.1239 12.4267 14.1064 13.3091H11.2443C11.2792 11.0638 13.2687 9.5 15.9912 9.5C18.6876 9.5 20.5375 11.0551 20.5287 13.1169C20.5375 14.5323 19.5078 15.5195 18.0506 15.7379V15.8253C19.9877 16.0612 21.0087 17.1707 20.9999 18.7433C21.0087 20.9362 18.9057 22.5 15.9563 22.5Z" fill="white"/>
</g>
</svg>
