<svg width="157" height="46" viewBox="0 0 157 46" fill="none" xmlns="http://www.w3.org/2000/svg">
<g id="Union">
<path fill-rule="evenodd" clip-rule="evenodd" d="M18.9796 1C9.04974 1 1 9.04973 1 18.9796C1 28.9094 9.04973 36.9592 18.9796 36.9592H73.5954L78.1432 44.5159C78.5319 45.1617 79.4681 45.1617 79.8568 44.5159L84.4046 36.9592H138.02C147.95 36.9592 156 28.9094 156 18.9796C156 9.04973 147.95 1 138.02 1H18.9796Z" fill="white"/>
<path d="M73.5954 36.9592L74.0238 36.7014L73.8781 36.4592H73.5954V36.9592ZM78.1432 44.5159L78.5716 44.2581V44.2581L78.1432 44.5159ZM79.8568 44.5159L79.4284 44.2581V44.2581L79.8568 44.5159ZM84.4046 36.9592V36.4592H84.1219L83.9762 36.7014L84.4046 36.9592ZM1.5 18.9796C1.5 9.32588 9.32588 1.5 18.9796 1.5V0.5C8.77359 0.5 0.5 8.77359 0.5 18.9796H1.5ZM18.9796 36.4592C9.32587 36.4592 1.5 28.6333 1.5 18.9796H0.5C0.5 29.1856 8.77359 37.4592 18.9796 37.4592V36.4592ZM73.5954 36.4592H18.9796V37.4592H73.5954V36.4592ZM78.5716 44.2581L74.0238 36.7014L73.167 37.217L77.7148 44.7737L78.5716 44.2581ZM79.4284 44.2581C79.2341 44.581 78.7659 44.581 78.5716 44.2581L77.7148 44.7737C78.2978 45.7425 79.7022 45.7424 80.2852 44.7737L79.4284 44.2581ZM83.9762 36.7014L79.4284 44.2581L80.2852 44.7737L84.833 37.217L83.9762 36.7014ZM138.02 36.4592H84.4046V37.4592H138.02V36.4592ZM155.5 18.9796C155.5 28.6333 147.674 36.4592 138.02 36.4592V37.4592C148.226 37.4592 156.5 29.1856 156.5 18.9796H155.5ZM138.02 1.5C147.674 1.5 155.5 9.32588 155.5 18.9796H156.5C156.5 8.77359 148.226 0.5 138.02 0.5V1.5ZM18.9796 1.5H138.02V0.5H18.9796V1.5Z" fill="#9D9D9E"/>
</g>
</svg>
